<svg width="65" height="65" viewBox="0 0 65 65" fill="none" xmlns="http://www.w3.org/2000/svg">
<path d="M32.5 0C50.4493 0 65 14.5507 65 32.5C65 50.4493 50.4493 65 32.5 65C14.5507 65 0 50.4493 0 32.5C0 14.5507 14.5507 0 32.5 0ZM20.9746 15.1816C20.4239 15.0024 19.8389 14.9551 19.2666 15.0439C18.6942 15.1329 18.1501 15.3553 17.6797 15.6934C17.2094 16.0313 16.8254 16.4753 16.5586 16.9893C14.9883 19.9273 14.5864 23.3507 15.4346 26.5723C17.587 35.1226 29.8774 47.413 38.4277 49.5654C41.6493 50.4136 45.0727 50.0117 48.0107 48.4414C48.5247 48.1746 48.9687 47.7906 49.3066 47.3203C49.6447 46.8499 49.8671 46.3058 49.9561 45.7334C50.0449 45.1611 49.9976 44.5761 49.8184 44.0254C49.639 43.4746 49.3327 42.9738 48.9238 42.5635L45.2793 38.9092C44.7588 38.3827 44.0904 38.0268 43.3633 37.8877C42.636 37.7487 41.8832 37.8334 41.2051 38.1309C40.4432 38.4572 39.7473 38.92 39.1523 39.4971C34.9822 43.6707 21.331 30.0196 25.5029 25.8477C26.0779 25.2528 26.5393 24.5577 26.8643 23.7969C27.1612 23.1187 27.2455 22.3659 27.1064 21.6387C26.9674 20.9116 26.611 20.2434 26.085 19.7227L22.4365 16.0762C22.0262 15.6673 21.5254 15.361 20.9746 15.1816Z" fill="#041936"/>
</svg>
