<svg width="65" height="65" viewBox="0 0 65 65" fill="none" xmlns="http://www.w3.org/2000/svg">
<path d="M32.4999 65C50.2474 65 65 50.2476 65 32.5C65 14.7206 50.2156 0 32.4681 0C14.6886 0 0 14.7206 0 32.5C0 50.2476 14.7205 65 32.4999 65ZM19.8504 48.8138C18.8627 48.8138 18.1936 48.1128 18.1936 47.0932C18.1936 46.679 18.2891 46.2647 18.4485 45.8824L30.2376 15.772C30.7475 14.5294 31.4803 13.9241 32.5318 13.9241C33.5195 13.9241 34.2842 14.5294 34.7302 15.772L46.5513 45.8824C46.7106 46.2647 46.8381 46.679 46.8381 47.0932C46.8381 48.1128 46.169 48.8138 45.1494 48.8138C44.6714 48.8138 44.1616 48.6226 43.8429 48.304L33.2646 37.6936C32.9777 37.4069 32.7548 37.2476 32.5318 37.2476C32.2768 37.2476 32.0219 37.4069 31.7352 37.6936L21.1249 48.304C20.8062 48.6226 20.3284 48.8138 19.8504 48.8138Z" fill="#041936"/>
</svg>
