<svg width="65" height="65" viewBox="0 0 65 65" fill="none" xmlns="http://www.w3.org/2000/svg">
<path d="M65 32.5C65 38.9279 63.0939 45.2114 59.5228 50.556C55.9516 55.9006 50.8758 60.0662 44.9372 62.5261C38.9986 64.9859 32.464 65.6295 26.1596 64.3755C19.8552 63.1215 14.0642 60.0262 9.51904 55.481C4.97384 50.9358 1.87851 45.1448 0.624493 38.8404C-0.629527 32.536 0.0140816 26.0014 2.47393 20.0628C4.93378 14.1242 9.09938 9.04838 14.444 5.47724C19.7886 1.90609 26.0721 0 32.5 0C41.1195 0 49.386 3.4241 55.481 9.51903C61.5759 15.614 65 23.8805 65 32.5ZM52.9344 32.5244C52.9344 28.4828 51.7359 24.5321 49.4906 21.1716C47.2452 17.8112 44.0538 15.1921 40.3199 13.6455C36.586 12.0988 32.4773 11.6942 28.5135 12.4826C24.5496 13.2711 20.9085 15.2173 18.0507 18.0751C15.1929 20.9329 13.2467 24.5739 12.4583 28.5378C11.6698 32.5017 12.0745 36.6104 13.6211 40.3443C15.1677 44.0782 17.7869 47.2696 21.1473 49.5149C24.5077 51.7603 28.4585 52.9587 32.5 52.9587C35.1835 52.9587 37.8407 52.4302 40.3199 51.4033C42.7991 50.3763 45.0518 48.8712 46.9493 46.9736C48.8468 45.0761 50.352 42.8235 51.3789 40.3443C52.4058 37.8651 52.9344 35.2078 52.9344 32.5244ZM22.9409 30.8994H15.3928C15.6881 27.8116 16.8123 24.8609 18.6466 22.3595C20.4808 19.858 22.957 17.8987 25.8131 16.6887C26.084 16.575 26.3548 16.468 26.6256 16.3678C24.238 20.8415 22.9735 25.8285 22.9409 30.8994ZM22.9409 34.1494C22.9744 39.2206 24.2404 44.2077 26.6297 48.6809C26.3534 48.5807 26.0813 48.4737 25.8131 48.36C22.9539 47.1544 20.475 45.1963 18.6401 42.694C16.8052 40.1917 15.683 37.2387 15.3928 34.1494H22.9409ZM26.1909 30.8994C26.2629 28.9865 26.4843 27.0821 26.8531 25.2037C27.2221 23.2218 27.8291 21.2917 28.6609 19.4553C29.835 16.9569 31.3422 15.34 32.5 15.34C33.6578 15.34 35.165 16.9569 36.3391 19.4553C37.1703 21.2919 37.7773 23.222 38.1469 25.2037C38.5151 27.0822 38.7365 28.9865 38.8091 30.8994H26.1909ZM38.8091 34.1494C38.7366 36.0622 38.5152 37.9665 38.1469 39.845C37.777 41.8267 37.17 43.7567 36.3391 45.5934C35.165 48.0959 33.6578 49.7087 32.5 49.7087C31.3422 49.7087 29.835 48.0959 28.6609 45.5934C27.8294 43.7569 27.2225 41.8268 26.8531 39.845C26.4842 37.9666 26.2628 36.0623 26.1909 34.1494H38.8091ZM44.6509 20.3734C47.482 23.1953 49.2356 26.9194 49.6072 30.8994H42.0591C42.0259 25.8281 40.76 20.8409 38.3703 16.3678C38.6466 16.468 38.9188 16.5764 39.1869 16.6928C41.2297 17.5538 43.0855 18.8039 44.6509 20.3734ZM42.0591 34.1494H49.6072C49.3115 37.237 48.1871 40.1875 46.3529 42.6889C44.5187 45.1902 42.0428 47.1496 39.1869 48.36C38.916 48.4764 38.6452 48.5848 38.3744 48.685C40.7634 44.2104 42.028 39.2217 42.0591 34.1494Z" fill="#041936"/>
</svg>
